<?xml version="1.0" encoding="utf-8"?>
<!-- Generator: Adobe Illustrator 16.0.4, SVG Export Plug-In . SVG Version: 6.00 Build 0)  -->
<!DOCTYPE svg PUBLIC "-//W3C//DTD SVG 1.1//EN" "http://www.w3.org/Graphics/SVG/1.1/DTD/svg11.dtd">
<svg version="1.1" xmlns="http://www.w3.org/2000/svg" xmlns:xlink="http://www.w3.org/1999/xlink" x="0px" y="0px" width="50px"
	 height="50px" viewBox="0 0 50 50" enable-background="new 0 0 50 50" xml:space="preserve">
<g id="レイヤー_1">
</g>
<g id="編集モード">
	<g>
		<path fill="#221F1F" d="M45,1H5C2.791,1,1,2.791,1,5v40c0,2.209,1.791,4,4,4h40c2.209,0,4-1.791,4-4V5C49,2.791,47.209,1,45,1z
			 M47,45c0,1.105-0.895,2-2,2H5c-1.105,0-2-0.895-2-2V5c0-1.105,0.895-2,2-2h40c1.105,0,2,0.895,2,2V45z"/>
		<path fill="#221F1F" d="M25,17.5c-5.428,0-10.312,2.288-13.774,5.938c-0.47,0.496-0.91,1.019-1.325,1.562
			c0.415,0.544,0.855,1.066,1.325,1.562C14.688,30.212,19.572,32.5,25,32.5c5.383,0,10.086-2.248,13.4-5.845
			c0.482-0.522,0.93-1.077,1.35-1.655c-0.42-0.578-0.867-1.133-1.35-1.656C35.086,19.748,30.383,17.5,25,17.5z M25,30.5
			c-4.949,0-9.392-2.124-12.496-5.5c3.104-3.376,7.547-5.5,12.496-5.5s9.188,2.124,12.13,5.5C34.188,28.376,29.949,30.5,25,30.5z"/>
		<path fill="#221F1F" d="M25,22c-1.657,0-3,1.343-3,3s1.343,3,3,3s3-1.343,3-3S26.657,22,25,22z M25,26c-0.552,0-1-0.448-1-1
			s0.448-1,1-1s1,0.448,1,1S25.552,26,25,26z"/>
	</g>
</g>
</svg>
