<?xml version="1.0" encoding="utf-8"?>
<!-- Generator: Adobe Illustrator 16.0.4, SVG Export Plug-In . SVG Version: 6.00 Build 0)  -->
<!DOCTYPE svg PUBLIC "-//W3C//DTD SVG 1.1//EN" "http://www.w3.org/Graphics/SVG/1.1/DTD/svg11.dtd">
<svg version="1.1" id="レイヤー_1" xmlns="http://www.w3.org/2000/svg" xmlns:xlink="http://www.w3.org/1999/xlink" x="0px"
	 y="0px" width="80px" height="140px" viewBox="0 0 80 140" enable-background="new 0 0 80 140" xml:space="preserve">

<g id = "woman_icon">

	<path fill="#E4007F" d="M65.786,71.762l-7.234-25.672c-1.992-6.723-6.457-11.18-11.479-11.18c-3.722,0-7.681,0-7.681,0
		s-3.958,0-7.68,0c-5.022,0-9.488,4.458-11.48,11.18l-7.234,25.672c-0.533,2.161,0.786,4.369,2.948,4.901s4.332-0.731,4.863-2.896
		l7.214-25.591h2.128L17.602,92.692h11.832v33.02c0,2.524,2.045,4.569,4.569,4.569c2.523,0,4.57-2.045,4.57-4.569v-33.02h2.521
		v33.02c0,2.524,2.046,4.569,4.569,4.569c2.523,0,4.569-2.045,4.569-4.569v-33.02h10.951l-12.55-44.517h2.128l7.214,25.591
		c0.533,2.165,2.701,3.429,4.864,2.896C65,76.131,66.318,73.923,65.786,71.762z"/>
</g>
</svg>
