<?xml version="1.0" encoding="utf-8"?>
<!-- Generator: Adobe Illustrator 16.0.4, SVG Export Plug-In . SVG Version: 6.00 Build 0)  -->
<!DOCTYPE svg PUBLIC "-//W3C//DTD SVG 1.1//EN" "http://www.w3.org/Graphics/SVG/1.1/DTD/svg11.dtd">
<svg version="1.1" id="レイヤー_1" xmlns="http://www.w3.org/2000/svg" xmlns:xlink="http://www.w3.org/1999/xlink" x="0px"
	 y="0px" width="80px" height="140px" viewBox="0 0 80 140" enable-background="new 0 0 80 140" xml:space="preserve">
<g>
	<path fill="#2EA7E0" d="M40,31.135c-6.558,0-21.96,0.626-21.96,13.354v30.416c-0.094,1.981,1.436,3.667,3.421,3.762
		c1.983,0.095,3.666-1.438,3.76-3.421l1.697-18.472l1.849,68.771c0,2.588,2.098,4.685,4.686,4.685c2.588,0,4.688-2.097,4.688-4.685
		L40,83.264l1.86,42.28c0,2.588,2.099,4.685,4.688,4.685c2.588,0,4.685-2.097,4.685-4.685l1.851-68.771l1.695,18.472
		c0.094,1.983,1.78,3.516,3.762,3.421c1.984-0.095,3.514-1.78,3.419-3.762V44.489C61.959,31.761,46.56,31.135,40,31.135z"/>
</g>
</svg>
